<svg width="114" height="124" viewBox="0 0 114 124" fill="none" xmlns="http://www.w3.org/2000/svg">
<g clip-path="url(#clip0_1_36600)">
<g opacity="0.2">
<path d="M61.5781 118.87C92.7822 118.87 118.078 93.5742 118.078 62.3701C118.078 31.166 92.7822 5.87012 61.5781 5.87012C30.374 5.87012 5.07812 31.166 5.07812 62.3701C5.07812 93.5742 30.374 118.87 61.5781 118.87Z" fill="white"/>
</g>
<g opacity="0.4">
<path d="M61.5801 101.814C83.3641 101.814 101.024 84.1541 101.024 62.3701C101.024 40.5861 83.3641 22.9267 61.5801 22.9267C39.7961 22.9267 22.1367 40.5861 22.1367 62.3701C22.1367 84.1541 39.7961 101.814 61.5801 101.814Z" fill="white"/>
</g>
<path opacity="0.4" d="M61.5778 85.8226C74.5304 85.8226 85.0306 75.3224 85.0306 62.3698C85.0306 49.4172 74.5304 38.917 61.5778 38.917C48.6252 38.917 38.125 49.4172 38.125 62.3698C38.125 75.3224 48.6252 85.8226 61.5778 85.8226Z" fill="white"/>
</g>
<defs>
<clipPath id="clip0_1_36600">
<rect width="113" height="123" fill="white" transform="translate(0.578125 0.870117)"/>
</clipPath>
</defs>
</svg>
