<svg width="72" height="72" viewBox="0 0 72 72" fill="none" xmlns="http://www.w3.org/2000/svg">
<path d="M36 0C28.8799 0 21.9197 2.11136 15.9995 6.06709C10.0794 10.0228 5.46508 15.6452 2.74035 22.2234C0.0155968 28.8015 -0.697319 36.0399 0.691744 43.0232C2.08082 50.0066 5.50951 56.421 10.5442 61.4553C15.5788 66.4901 21.9935 69.9189 28.9768 71.3083C35.9601 72.6973 43.1985 71.9843 49.7768 69.26C56.355 66.5347 61.9769 61.9205 65.933 56.0004C69.8887 50.0803 72 43.12 72 35.9999C72 26.4521 68.2073 17.2954 61.4558 10.5441C54.7044 3.79283 45.5479 0 36 0ZM58.1141 41.261C58.1141 41.9811 54.8638 42.0839 54.8638 42.8039C54.8638 43.5239 58.0783 44.501 58.0783 45.4938C58.0783 46.7073 51.4541 46.8872 51.4541 48.1011C51.4541 49.3972 56.4787 48.9959 56.4787 50.4C56.4787 52.0559 43.8583 51.2844 43.8583 53.0073C43.8583 53.6654 45.4733 53.9382 47.4945 54.1543C48.6053 54.2775 48.3633 54.8227 47.7311 55.1829C44.1978 57.3385 40.139 58.4792 36 58.4792C31.8611 58.4792 27.8022 57.3385 24.2691 55.1829C23.6417 54.7972 23.3948 54.2521 24.5057 54.1543C26.5268 53.9382 28.1469 53.64 28.1469 53.0073C28.1469 51.2844 15.5211 52.0559 15.5211 50.4C15.5211 48.9959 20.5509 49.3713 20.5509 48.1011C20.5509 46.8872 13.9218 46.7073 13.9218 45.4938C13.9218 44.501 17.1412 43.5393 17.1412 42.8039C17.1412 42.0685 13.8858 41.9862 13.8858 41.261C13.8858 40.5359 16.2618 40.0679 16.2618 39.5536C16.2618 38.5816 13.5 40.3508 13.5 35.9999C13.5 30.0326 15.8707 24.3096 20.0902 20.0901C24.3098 15.8705 30.0326 13.5 36 13.5C41.9674 13.5 47.6905 15.8705 51.91 20.0901C56.1295 24.3096 58.4998 30.0326 58.4998 35.9999C58.4998 40.3508 55.7384 38.5714 55.7384 39.5536C55.7384 40.0679 58.1141 40.4845 58.1141 41.261Z" fill="white"/>
</svg>
