<svg width="124" height="58" viewBox="0 0 124 58" fill="none" xmlns="http://www.w3.org/2000/svg">
<g clip-path="url(#clip0_1_36059)">
<path d="M15.831 21.3279V26.2815H25.6291C25.3292 29.0604 24.5627 31.0942 23.3962 32.5239C21.9631 34.2557 19.7302 36.1485 15.831 36.1485C9.79878 36.1485 5.08301 30.2686 5.08301 22.9791C5.08301 15.6896 9.79878 9.80971 15.831 9.80971C19.0804 9.80971 21.4632 11.3602 23.2129 13.3538L26.0957 9.87012C23.6628 7.0107 20.3968 4.83594 15.831 4.83594C7.56587 4.83594 0.617188 12.9712 0.617188 22.959C0.617188 32.9468 7.56587 41.082 15.831 41.082C20.2968 41.082 23.6628 39.31 26.2957 36.0076C28.9952 32.7454 29.845 28.1341 29.845 24.429C29.845 23.2812 29.7783 22.2139 29.6284 21.3279H15.831ZM42.0927 17.3006C36.7437 17.3006 32.3778 22.2139 32.3778 29C32.3778 35.7257 36.7437 40.6994 42.0927 40.6994C47.4417 40.6994 51.8075 35.7458 51.8075 29C51.8075 22.2139 47.4417 17.3006 42.0927 17.3006ZM42.0927 36.0881C39.1599 36.0881 36.627 33.1683 36.627 29C36.627 24.7914 39.1599 21.9119 42.0927 21.9119C45.0254 21.9119 47.5583 24.7914 47.5583 29C47.5583 33.1683 45.0254 36.0881 42.0927 36.0881ZM89.717 19.9183H89.567C88.6172 18.549 86.7842 17.3006 84.468 17.3006C79.6356 17.3006 75.4197 22.3951 75.4197 29C75.4197 35.5646 79.6356 40.6994 84.468 40.6994C86.7842 40.6994 88.6172 39.4509 89.567 38.0414H89.717V39.6724C89.717 44.1428 87.734 46.5391 84.5513 46.5391C81.9518 46.5391 80.3354 44.2838 79.6689 42.3708L75.9696 44.2233C77.0361 47.3244 79.8522 51.1302 84.5513 51.1302C89.5337 51.1302 93.7496 47.5862 93.7496 38.9475V17.9047H89.717V19.9183ZM84.8346 36.0881C81.9018 36.0881 79.6689 33.0676 79.6689 29C79.6689 24.872 81.9018 21.9119 84.8346 21.9119C87.734 21.9119 90.0003 24.9324 90.0003 29.0403C90.0169 33.128 87.734 36.0881 84.8346 36.0881ZM63.7552 17.3006C58.4062 17.3006 54.0404 22.2139 54.0404 29C54.0404 35.7257 58.4062 40.6994 63.7552 40.6994C69.1042 40.6994 73.4701 35.7458 73.4701 29C73.4701 22.2139 69.1042 17.3006 63.7552 17.3006ZM63.7552 36.0881C60.8225 36.0881 58.2896 33.1683 58.2896 29C58.2896 24.7914 60.8225 21.9119 63.7552 21.9119C66.688 21.9119 69.2209 24.7914 69.2209 29C69.2209 33.1683 66.688 36.0881 63.7552 36.0881ZM97.0823 5.31922H101.265V40.6994H97.0823V5.31922ZM114.179 36.0881C112.013 36.0881 110.48 34.9 109.48 32.5441L122.427 26.0802L121.994 24.7511C121.194 22.1334 118.728 17.3006 113.712 17.3006C108.73 17.3006 104.581 22.0327 104.581 29C104.581 35.5646 108.68 40.6994 114.179 40.6994C118.612 40.6994 121.178 37.4171 122.244 35.5243L118.945 32.8662C117.845 34.7994 116.345 36.0881 114.179 36.0881ZM113.879 21.6904C115.595 21.6904 117.062 22.7576 117.545 24.2679L108.797 28.6375C108.797 23.7242 111.68 21.6904 113.879 21.6904Z" fill="white"/>
</g>
<defs>
<clipPath id="clip0_1_36059">
<rect width="123.31" height="58" fill="white" transform="translate(0.433594)"/>
</clipPath>
</defs>
</svg>
