<svg width="295" height="123" viewBox="0 0 295 123" fill="none" xmlns="http://www.w3.org/2000/svg">
<rect x="34.6719" y="0.164978" width="52.95" height="52.95" rx="26.475" fill="white"/>
<g clip-path="url(#clip0_1_36515)">
<g clip-path="url(#clip1_1_36515)">
<path d="M71.3947 21.6538C71.0566 21.5378 70.7156 21.4304 70.3721 21.3315C70.4298 21.0958 70.4829 20.8628 70.5301 20.634C71.3042 16.8761 70.7982 13.8486 69.0695 12.8518C67.4122 11.8962 64.7017 12.8926 61.9642 15.275C61.6944 15.5102 61.4306 15.7522 61.1731 16.0008C61.0007 15.8355 60.8252 15.6734 60.6468 15.5147C57.7778 12.9674 54.9021 11.8937 53.1754 12.8934C51.5195 13.8519 51.0291 16.698 51.7261 20.2594C51.7954 20.6122 51.8737 20.9631 51.9609 21.3118C51.5538 21.4275 51.1611 21.5506 50.7852 21.6816C47.4215 22.8544 45.2734 24.6922 45.2734 26.5985C45.2734 28.5674 47.5795 30.5422 51.0829 31.7397C51.3669 31.8364 51.6533 31.926 51.9418 32.0084C51.8481 32.384 51.7649 32.7622 51.6923 33.1424C51.0279 36.6421 51.5468 39.4208 53.1982 40.3733C54.9038 41.357 57.7666 40.346 60.5541 37.9093C60.7801 37.7112 61.0011 37.5075 61.217 37.2983C61.4959 37.5675 61.7823 37.8287 62.0758 38.0819C64.776 40.4053 67.4427 41.3435 69.0925 40.3885C70.7965 39.402 71.3504 36.4168 70.6314 32.785C70.5747 32.5005 70.5112 32.2174 70.4409 31.9359C70.6419 31.8763 70.8392 31.815 71.0316 31.7512C74.6737 30.5446 77.0434 28.5937 77.0434 26.5985C77.0434 24.6853 74.826 22.835 71.3947 21.6538ZM70.6048 30.4631C70.4311 30.5205 70.2528 30.576 70.0712 30.63C69.6691 29.3571 69.1265 28.0036 68.4624 26.6051C69.0961 25.24 69.6178 23.9038 70.0086 22.6392C70.3336 22.7333 70.649 22.8324 70.953 22.9371C73.893 23.9492 75.6863 25.4455 75.6863 26.5985C75.6863 27.8267 73.7495 29.421 70.6048 30.4631ZM69.3 33.0486C69.6179 34.6545 69.6632 36.1065 69.4526 37.2416C69.2635 38.2616 68.883 38.9416 68.4124 39.214C67.4113 39.7935 65.2702 39.0402 62.961 37.0531C62.688 36.8177 62.4216 36.5748 62.1622 36.3246C63.0574 35.3456 63.9521 34.2075 64.8253 32.9434C66.3611 32.8071 67.8121 32.5842 69.128 32.28C69.1914 32.5348 69.2487 32.7911 69.3 33.0486ZM56.1045 39.1138C55.1264 39.4592 54.3472 39.4691 53.8763 39.1976C52.8742 38.6196 52.4576 36.3884 53.0258 33.3956C53.0934 33.0419 53.1707 32.6902 53.2578 32.3408C54.5591 32.6288 55.9995 32.8358 57.539 32.9606C58.4182 34.1975 59.3386 35.3344 60.2663 36.33C60.0691 36.5207 59.8673 36.7066 59.661 36.8874C58.4283 37.9649 57.1931 38.7293 56.1045 39.1138ZM51.522 30.4555C49.9728 29.926 48.6934 29.2378 47.8165 28.4869C47.0285 27.8121 46.6307 27.1421 46.6307 26.5985C46.6307 25.4417 48.3554 23.9661 51.2319 22.9632C51.581 22.8416 51.9464 22.7268 52.3255 22.6191C52.7231 23.9122 53.2446 25.2643 53.8739 26.6316C53.2364 28.019 52.7075 29.3927 52.306 30.7011C52.0427 30.6257 51.7813 30.5438 51.522 30.4555ZM53.0581 19.9987C52.461 16.9474 52.8575 14.6457 53.8554 14.068C54.9182 13.4527 57.2685 14.33 59.7457 16.5296C59.9072 16.6733 60.0661 16.82 60.2223 16.9695C59.2993 17.9607 58.3872 19.0892 57.5159 20.3188C56.0218 20.4573 54.5915 20.6796 53.2765 20.9776C53.1955 20.6532 53.1227 20.3267 53.0581 19.9987ZM66.7622 23.3827C66.4516 22.8462 66.1295 22.3165 65.7961 21.7938C66.8098 21.922 67.781 22.0922 68.693 22.3002C68.4192 23.1778 68.078 24.0953 67.6763 25.036C67.3826 24.4789 67.0779 23.9277 66.7622 23.3827ZM61.1737 17.9395C61.7997 18.6177 62.4266 19.3748 63.0433 20.1964C61.7923 20.1373 60.5393 20.1371 59.2884 20.1956C59.9056 19.3817 60.5379 18.6255 61.1737 17.9395ZM55.5493 23.392C55.2376 23.9326 54.9386 24.4803 54.6524 25.0349C54.2573 24.0975 53.9191 23.1758 53.643 22.2858C54.5494 22.083 55.516 21.9172 56.5232 21.7913C56.1861 22.3172 55.8614 22.8509 55.5493 23.392ZM56.5522 31.5023C55.5116 31.3861 54.5304 31.2289 53.6242 31.0316C53.9047 30.1256 54.2503 29.1843 54.654 28.2269C54.9413 28.7818 55.2416 29.3299 55.5546 29.8707C55.8766 30.4267 56.2099 30.9713 56.5522 31.5023ZM61.2112 35.3532C60.5678 34.6592 59.9262 33.8914 59.2996 33.0656C59.908 33.0894 60.5281 33.1016 61.1584 33.1016C61.806 33.1016 62.4461 33.0871 63.0762 33.059C62.4575 33.8997 61.8329 34.6686 61.2112 35.3532ZM67.689 28.178C68.1137 29.146 68.4716 30.0823 68.7558 30.9728C67.8347 31.183 66.8402 31.3523 65.7923 31.478C66.1281 30.9456 66.4532 30.4067 66.7676 29.8614C67.0872 29.3072 67.3944 28.7459 67.689 28.178ZM65.592 29.1833C65.1107 30.0193 64.6024 30.8395 64.0679 31.6424C63.0996 31.711 62.1292 31.7451 61.1584 31.7445C60.1697 31.7445 59.2081 31.7138 58.282 31.6537C57.7335 30.8526 57.2155 30.031 56.7291 29.1908C56.245 28.355 55.793 27.5011 55.3737 26.6309C55.7919 25.7606 56.2427 24.9063 56.7252 24.0698L56.725 24.07C57.2073 23.2333 57.7212 22.4153 58.2655 21.6176C59.2103 21.5461 60.1792 21.5089 61.1583 21.5089C62.1419 21.5089 63.1122 21.5465 64.0567 21.6185C64.5956 22.4149 65.1061 23.2302 65.5875 24.0627C66.0715 24.8973 66.5283 25.7474 66.9571 26.6117C66.5327 27.4848 66.0774 28.3426 65.592 29.1833ZM68.3917 14.0276C69.4555 14.6411 69.8692 17.1153 69.2008 20.36C69.1581 20.567 69.1102 20.7778 69.0581 20.9916C67.7399 20.6873 66.3087 20.4611 64.8101 20.3205C63.9372 19.0774 63.0326 17.9472 62.1246 16.9688C62.3626 16.7394 62.6062 16.5159 62.8553 16.2986C65.2008 14.2575 67.3929 13.4516 68.3917 14.0276ZM61.1584 23.7616C62.7252 23.7616 63.9954 25.0318 63.9954 26.5985C63.9954 28.1653 62.7252 29.4355 61.1584 29.4355C59.5917 29.4355 58.3215 28.1653 58.3215 26.5985C58.3215 25.0318 59.5917 23.7616 61.1584 23.7616Z" fill="#00D8FF"/>
</g>
</g>
<rect x="103.629" y="0.164978" width="52.96" height="52.96" rx="26.48" fill="white"/>
<g clip-path="url(#clip2_1_36515)">
<g clip-path="url(#clip3_1_36515)">
<path d="M139.66 12.927H145.989L130.104 40.3534L114.219 12.927H126.381L130.104 19.2562L133.703 12.927H139.66Z" fill="#41B883"/>
<path d="M114.219 12.927L130.104 40.3534L145.989 12.927H139.66L130.104 29.3084L120.548 12.927H114.219Z" fill="#41B883"/>
<path d="M120.547 12.9269L130.103 29.4324L139.659 12.9269H133.702L130.103 19.2561L126.38 12.9269H120.547Z" fill="#35495E"/>
</g>
</g>
<rect x="172.59" y="0.164978" width="52.95" height="52.95" rx="26.475" fill="white"/>
<g clip-path="url(#clip4_1_36515)">
<g clip-path="url(#clip5_1_36515)">
<path d="M199.067 10.755L212.805 18.6868V34.5503L199.067 42.4821L185.328 34.5503V18.6868L199.067 10.755Z" fill="#673AB8"/>
<path d="M189.069 34.4193C190.895 36.757 196.7 34.9758 202.179 30.6945C207.659 26.4132 210.792 21.2123 208.965 18.8745C207.139 16.5369 201.335 18.3181 195.855 22.5993C190.375 26.8808 187.243 32.0816 189.069 34.4193ZM189.849 33.8096C189.244 33.0345 189.508 31.5125 190.662 29.5966C191.877 27.5791 193.94 25.3518 196.464 23.3796C198.989 21.4074 201.649 19.9446 203.9 19.2536C206.039 18.5975 207.579 18.7089 208.185 19.4842C208.791 20.2594 208.526 21.7814 207.372 23.6973C206.157 25.7148 204.094 27.942 201.57 29.9143C199.046 31.8865 196.385 33.3493 194.134 34.0402C191.996 34.6964 190.455 34.5849 189.849 33.8096Z" fill="white"/>
<path d="M208.965 34.4193C210.792 32.0816 207.659 26.8807 202.18 22.5993C196.7 18.3181 190.895 16.5369 189.069 18.8745C187.243 21.2122 190.375 26.4132 195.855 30.6945C201.335 34.9758 207.139 36.7571 208.965 34.4193ZM208.185 33.8096C207.579 34.585 206.039 34.6964 203.9 34.0402C201.649 33.3493 198.989 31.8865 196.465 29.9143C193.94 27.942 191.877 25.7148 190.662 23.6973C189.508 21.7814 189.244 20.2595 189.849 19.4842C190.455 18.7089 191.996 18.5975 194.134 19.2536C196.385 19.9446 199.046 21.4074 201.57 23.3796C204.094 25.3518 206.157 27.5791 207.372 29.5966C208.526 31.5124 208.791 33.0343 208.185 33.8096Z" fill="white"/>
<path d="M199.018 28.7506C200.18 28.7506 201.122 27.8087 201.122 26.6468C201.122 25.485 200.18 24.5431 199.018 24.5431C197.856 24.5431 196.914 25.485 196.914 26.6468C196.914 27.8087 197.856 28.7506 199.018 28.7506Z" fill="white"/>
</g>
</g>
<rect x="241.539" y="0.164978" width="52.95" height="52.95" rx="26.475" fill="white"/>
<g clip-path="url(#clip6_1_36515)">
<g clip-path="url(#clip7_1_36515)">
<path d="M279.567 14.9841C278.163 12.9517 276.036 11.5317 273.621 11.0141C271.205 10.4966 268.683 10.9204 266.57 12.1991L259.143 16.8408C258.147 17.4687 257.293 18.2977 256.636 19.2746C255.979 20.2515 255.533 21.3548 255.327 22.514C254.982 24.4891 255.309 26.5227 256.255 28.2904C255.592 29.2522 255.135 30.341 254.914 31.488C254.71 32.6687 254.741 33.8782 255.007 35.0466C255.273 36.2151 255.767 37.3194 256.461 38.2959C259.453 42.525 265.229 43.7628 269.458 41.0809L276.885 36.336C277.881 35.7081 278.735 34.8792 279.392 33.9023C280.049 32.9253 280.495 31.822 280.701 30.6628C281.022 28.7211 280.696 26.7277 279.773 24.9896C280.436 24.0278 280.893 22.939 281.114 21.792C281.318 20.6112 281.287 19.4018 281.021 18.2333C280.755 17.0649 280.261 15.9606 279.567 14.9841Z" fill="#FF3E00"/>
<path d="M265.848 38.7089C263.475 39.3278 260.897 38.3995 259.556 36.3365C259.135 35.7449 258.836 35.0753 258.676 34.3669C258.517 33.6585 258.5 32.9254 258.627 32.2105C258.649 32.0023 258.684 31.7956 258.73 31.5916L258.937 31.179L259.349 31.3853C260.222 32.0281 261.199 32.5166 262.237 32.8294L262.444 32.9326V33.242C262.429 33.6108 262.538 33.9739 262.753 34.2735C262.953 34.568 263.237 34.7948 263.569 34.9238C263.901 35.0528 264.264 35.0778 264.61 34.9955C264.792 34.9564 264.967 34.8867 265.126 34.7892L272.449 30.1475C272.635 30.0358 272.796 29.8863 272.92 29.7085C273.044 29.5308 273.13 29.329 273.171 29.116C273.204 28.8995 273.194 28.6785 273.141 28.466C273.088 28.2535 272.993 28.0537 272.862 27.8782C272.662 27.5837 272.378 27.3569 272.046 27.228C271.714 27.099 271.351 27.074 271.005 27.1562C270.859 27.2053 270.72 27.2748 270.593 27.3625L267.704 29.116C267.262 29.4282 266.775 29.6716 266.26 29.8381C263.888 30.457 261.309 29.4255 259.968 27.4656C259.547 26.874 259.248 26.2045 259.089 25.4961C258.93 24.7877 258.913 24.0546 259.04 23.3397C259.16 22.6455 259.424 21.984 259.815 21.3978C260.206 20.8117 260.715 20.3136 261.309 19.9357L268.736 15.1909C269.184 14.9148 269.671 14.7063 270.18 14.572C272.552 13.9531 275.131 14.8814 276.472 16.8413C276.893 17.4329 277.192 18.1024 277.351 18.8108C277.511 19.5192 277.527 20.2523 277.4 20.9672C277.383 21.21 277.348 21.4513 277.297 21.6893L277.091 22.1019L276.678 21.7924C275.805 21.1496 274.828 20.6612 273.79 20.3483H273.584V20.0389C273.624 19.6355 273.513 19.2316 273.274 18.9042C273.075 18.6097 272.79 18.3829 272.459 18.254C272.127 18.125 271.764 18.1 271.418 18.1822C271.235 18.2213 271.061 18.2911 270.902 18.3885L263.578 23.1334C263.393 23.2451 263.232 23.3946 263.108 23.5723C262.983 23.7501 262.898 23.9519 262.856 24.1649C262.823 24.3814 262.834 24.6024 262.887 24.8149C262.94 25.0274 263.035 25.2272 263.166 25.4027C263.366 25.6972 263.65 25.924 263.982 26.0529C264.313 26.1819 264.676 26.2069 265.023 26.1247C265.169 26.0756 265.308 26.0061 265.435 25.9184L268.323 24.1649C268.765 23.8527 269.252 23.6093 269.767 23.4428C272.14 22.8239 274.719 23.7523 276.06 25.8153C276.48 26.4069 276.779 27.0764 276.939 27.7848C277.098 28.4932 277.115 29.2263 276.988 29.9412C276.868 30.6354 276.604 31.2969 276.213 31.883C275.822 32.4692 275.313 32.9673 274.719 33.3452L267.292 37.9869C266.85 38.299 266.363 38.5425 265.848 38.7089Z" fill="white"/>
</g>
</g>
<rect x="0.199219" y="69.1249" width="52.95" height="52.95" rx="26.475" fill="white"/>
<g clip-path="url(#clip8_1_36515)">
<g clip-path="url(#clip9_1_36515)">
<path d="M20.3203 98.7769L22.9016 94.3093L26.6743 92.4229L33.0283 98.7769L34.1204 104.932L33.0283 111.485L26.6743 105.131L22.9016 102.55L20.3203 98.7769Z" fill="#00E8FF"/>
<path d="M26.6768 105.13V92.4225L33.0308 86.0685V98.7765L26.6768 105.13ZM13.9688 105.13L20.3228 111.484L21.2163 105.428L20.3228 98.7765L16.6493 101.159L13.9688 105.13Z" fill="#283198"/>
<path d="M20.3228 98.7769V86.0689L26.6768 79.7149V92.4229L20.3228 98.7769ZM33.0308 111.485V98.7769L39.3848 92.4229V105.131L33.0308 111.485ZM13.9688 105.131V92.4229L20.3228 98.7769L13.9688 105.131Z" fill="#324FFF"/>
<path d="M20.3203 111.484V98.7765L26.6743 105.13L20.3203 111.484Z" fill="#00FFFF"/>
</g>
</g>
<rect x="69.1484" y="69.1249" width="52.95" height="52.95" rx="26.475" fill="white"/>
<rect x="138.102" y="69.1249" width="52.96" height="52.96" rx="26.48" fill="white"/>
<g clip-path="url(#clip10_1_36515)">
<g clip-path="url(#clip11_1_36515)">
<path d="M180.475 86.9749C180.475 86.9749 169.926 79.2806 161.736 81.018L161.115 81.2662C159.874 81.6385 158.881 82.259 158.261 83.0036L157.889 83.6241L154.91 88.8364L160.122 89.8292C162.232 91.1943 165.086 91.8148 167.693 91.1943L176.876 93.0558L180.475 86.9749Z" fill="#76B3E1"/>
<path d="M158.259 86.9749L157.514 87.2231C154.04 88.2159 153.047 91.4425 154.908 94.1728C156.894 96.7789 161.113 98.2681 164.464 97.2753L176.874 93.0559C176.874 93.0559 166.326 85.2375 158.259 86.9749Z" fill="#518AC8"/>
</g>
</g>
<rect x="207.059" y="69.1249" width="52.95" height="52.95" rx="26.475" fill="white"/>
<g clip-path="url(#clip12_1_36515)">
<g clip-path="url(#clip13_1_36515)">
<g opacity="0.8">
<path d="M259.823 80.0256L250.461 89.4667L250.508 89.5138H259.905L264.568 84.8109L259.823 80.0256Z" fill="#D8DEE9"/>
<path d="M250.542 80.0256L259.935 89.4984L259.919 89.5138H250.46L245.797 84.8109L250.542 80.0256Z" fill="#8AC0CF"/>
</g>
</g>
</g>
<defs>
<clipPath id="clip0_1_36515">
<rect width="31.77" height="31.77" fill="white" transform="translate(45.2734 10.755)"/>
</clipPath>
<clipPath id="clip1_1_36515">
<rect width="31.77" height="31.77" fill="white" transform="translate(45.2734 10.755)"/>
</clipPath>
<clipPath id="clip2_1_36515">
<rect width="31.77" height="31.77" fill="white" transform="translate(114.219 10.755)"/>
</clipPath>
<clipPath id="clip3_1_36515">
<rect width="31.77" height="31.77" fill="white" transform="translate(114.219 10.755)"/>
</clipPath>
<clipPath id="clip4_1_36515">
<rect width="31.77" height="31.77" fill="white" transform="translate(183.18 10.755)"/>
</clipPath>
<clipPath id="clip5_1_36515">
<rect width="31.77" height="31.77" fill="white" transform="translate(183.18 10.755)"/>
</clipPath>
<clipPath id="clip6_1_36515">
<rect width="31.77" height="31.77" fill="white" transform="translate(252.129 10.755)"/>
</clipPath>
<clipPath id="clip7_1_36515">
<rect width="31.77" height="31.77" fill="white" transform="translate(252.129 10.755)"/>
</clipPath>
<clipPath id="clip8_1_36515">
<rect width="31.77" height="31.77" fill="white" transform="translate(10.7891 79.7149)"/>
</clipPath>
<clipPath id="clip9_1_36515">
<rect width="31.77" height="31.77" fill="white" transform="translate(10.7891 79.7149)"/>
</clipPath>
<clipPath id="clip10_1_36515">
<rect width="31.77" height="31.77" fill="white" transform="translate(148.703 79.7149)"/>
</clipPath>
<clipPath id="clip11_1_36515">
<rect width="31.77" height="31.77" fill="white" transform="translate(148.703 79.7149)"/>
</clipPath>
<clipPath id="clip12_1_36515">
<rect width="18.77" height="18.77" fill="white" transform="translate(245.797 75.3849)"/>
</clipPath>
<clipPath id="clip13_1_36515">
<rect width="18.77" height="18.77" fill="white" transform="translate(245.797 75.3849)"/>
</clipPath>
</defs>
</svg>
