<svg width="101" height="28" viewBox="0 0 101 28" fill="none" xmlns="http://www.w3.org/2000/svg">
<g clip-path="url(#clip0_1_36000)">
<path d="M13.9452 0.101074C11.1871 0.101074 8.49094 0.912551 6.19766 2.43289C3.90441 3.95323 2.11699 6.11414 1.06152 8.64239C0.00604168 11.1706 -0.270118 13.9526 0.267958 16.6366C0.806037 19.3206 2.1342 21.7859 4.08445 23.7208C6.03472 25.6558 8.51954 26.9737 11.2246 27.5077C13.9297 28.0415 16.7336 27.7675 19.2818 26.7204C21.83 25.673 24.0077 23.8996 25.5402 21.6242C27.0725 19.3489 27.8904 16.6738 27.8904 13.9373C27.8904 10.2677 26.4212 6.74837 23.8059 4.1536C21.1906 1.55881 17.6437 0.101074 13.9452 0.101074ZM22.5114 15.9593C22.5114 16.236 21.2524 16.2756 21.2524 16.5523C21.2524 16.829 22.4976 17.2046 22.4976 17.5861C22.4976 18.0525 19.9316 18.1217 19.9316 18.5882C19.9316 19.0864 21.8779 18.9321 21.8779 19.4718C21.8779 20.1082 16.9892 19.8117 16.9892 20.4739C16.9892 20.7268 17.6148 20.8316 18.3977 20.9147C18.828 20.9621 18.7343 21.1716 18.4894 21.31C17.1207 22.1385 15.5485 22.5769 13.9452 22.5769C12.3419 22.5769 10.7696 22.1385 9.40102 21.31C9.15799 21.1618 9.06236 20.9523 9.49267 20.9147C10.2756 20.8316 10.9031 20.717 10.9031 20.4739C10.9031 19.8117 6.01235 20.1082 6.01235 19.4718C6.01235 18.9321 7.96072 19.0764 7.96072 18.5882C7.96072 18.1217 5.39283 18.0525 5.39283 17.5861C5.39283 17.2046 6.63994 16.835 6.63994 16.5523C6.63994 16.2696 5.37887 16.238 5.37887 15.9593C5.37887 15.6806 6.29927 15.5007 6.29927 15.3031C6.29927 14.9295 5.22945 15.6095 5.22945 13.9373C5.22945 11.6438 6.14775 9.44421 7.78226 7.82248C9.41678 6.20073 11.6336 5.28964 13.9452 5.28964C16.2567 5.28964 18.4737 6.20073 20.1082 7.82248C21.7427 9.44421 22.6608 11.6438 22.6608 13.9373C22.6608 15.6095 21.5912 14.9256 21.5912 15.3031C21.5912 15.5007 22.5114 15.6609 22.5114 15.9593Z" fill="white"/>
<path d="M39.9637 20.6544C40.835 20.6544 41.6136 20.5085 42.2996 20.2168C42.9968 19.9251 43.5848 19.5414 44.064 19.0661C44.5431 18.5798 44.8862 18.0504 45.093 17.4777L43.1002 16.5538C42.8605 17.1589 42.4686 17.6614 41.924 18.0611C41.3903 18.4501 40.7369 18.6447 39.9637 18.6447C39.2013 18.6447 38.5317 18.4664 37.9544 18.1098C37.3773 17.7532 36.9252 17.2616 36.5985 16.6348C36.2718 15.9973 36.1085 15.2572 36.1085 14.4143C36.1085 13.5715 36.2718 12.8368 36.5985 12.21C36.9252 11.5725 37.3773 11.0809 37.9544 10.7351C38.5317 10.3785 39.2013 10.2002 39.9637 10.2002C40.7369 10.2002 41.3903 10.4001 41.924 10.7999C42.4686 11.1889 42.8605 11.686 43.1002 12.2911L45.093 11.3672C44.8862 10.7945 44.5431 10.2705 44.064 9.79504C43.5848 9.30879 42.9968 8.91979 42.2996 8.62805C41.6136 8.3363 40.835 8.19043 39.9637 8.19043C39.0925 8.19043 38.2866 8.34711 37.5461 8.66046C36.8055 8.96301 36.1629 9.39522 35.6184 9.95711C35.0738 10.5082 34.6491 11.1673 34.3442 11.9345C34.0393 12.6909 33.8867 13.5175 33.8867 14.4143C33.8867 15.3112 34.0393 16.1432 34.3442 16.9104C34.6491 17.6668 35.0738 18.3258 35.6184 18.8878C36.1629 19.4496 36.8055 19.8874 37.5461 20.2007C38.2866 20.5032 39.0925 20.6544 39.9637 20.6544Z" fill="white"/>
<path d="M46.7188 20.46H48.8588V8.19043H46.7188V20.46Z" fill="white"/>
<path d="M53.5315 20.6544C54.6859 20.6544 55.6115 20.2763 56.3085 19.52V20.4599H58.3342V14.5926C58.3342 13.9767 58.1763 13.431 57.8605 12.9556C57.5445 12.4802 57.109 12.1128 56.5535 11.8534C56.0091 11.5833 55.372 11.4482 54.6423 11.4482C53.7492 11.4482 52.9542 11.6589 52.2572 12.0804C51.5602 12.5018 51.081 13.0583 50.8197 13.7498L52.5676 14.5926C52.7309 14.1928 52.9869 13.8741 53.3354 13.6363C53.6838 13.3878 54.0923 13.2635 54.5605 13.2635C55.0506 13.2635 55.4427 13.3932 55.7367 13.6526C56.0416 13.9011 56.1941 14.2144 56.1941 14.5926V14.8844L53.5477 15.3058C52.5023 15.4787 51.729 15.8082 51.228 16.2945C50.7272 16.7807 50.4766 17.3912 50.4766 18.1259C50.4766 18.9039 50.7543 19.52 51.3098 19.9736C51.8651 20.4275 52.6057 20.6544 53.5315 20.6544ZM52.6982 18.0449C52.6982 17.4291 53.1176 17.04 53.9561 16.878L56.1941 16.5052V16.8617C56.1941 17.4668 55.9818 17.9801 55.557 18.4015C55.1431 18.8229 54.5987 19.0337 53.9235 19.0337C53.5642 19.0337 53.27 18.9472 53.0413 18.7744C52.8127 18.5906 52.6982 18.3475 52.6982 18.0449Z" fill="white"/>
<path d="M60.3086 20.4599H62.4486V15.5488C62.4486 14.8789 62.6338 14.3602 63.0041 13.9928C63.3853 13.6147 63.8752 13.4256 64.4743 13.4256H65.242V11.5454H64.7194C64.1748 11.5454 63.6955 11.6427 63.2817 11.8372C62.868 12.0317 62.5467 12.3828 62.3179 12.8907V11.6427H60.3086V20.4599Z" fill="white"/>
<path d="M66.418 10.6539H68.558V8.38477H66.418V10.6539ZM66.418 20.4598H68.558V11.6426H66.418V20.4598Z" fill="white"/>
<path d="M74.5868 20.5576C74.9462 20.5576 75.3002 20.5305 75.6487 20.4764V18.645C75.4417 18.6775 75.2511 18.6936 75.0769 18.6936C74.5541 18.6936 74.1729 18.5748 73.9334 18.337C73.6937 18.0994 73.574 17.7589 73.574 17.3159V13.5395H75.616V11.6431H73.574V9.6333H71.434V10.314C71.434 10.7463 71.3142 11.0758 71.0746 11.3027C70.8351 11.5297 70.4973 11.6431 70.0619 11.6431H69.8984V13.5395H71.434V17.4295C71.434 18.4127 71.7062 19.1799 72.2508 19.7309C72.8062 20.282 73.5849 20.5576 74.5868 20.5576Z" fill="white"/>
<path d="M78.3598 24.0423C79.1982 24.0423 79.8952 23.8045 80.4507 23.3291C81.0169 22.8645 81.469 22.2054 81.8066 21.3517L85.6782 11.6431H83.3584L81.0714 17.7211L78.7681 11.6431H76.4648L79.977 20.4603L79.7809 20.9303C79.6067 21.2976 79.4053 21.5948 79.1765 21.8217C78.9587 22.0487 78.6047 22.1621 78.1147 22.1621C77.9404 22.1621 77.7554 22.1458 77.5592 22.1136C77.3633 22.092 77.189 22.0595 77.0366 22.0163V23.7991C77.2217 23.8856 77.4285 23.945 77.6573 23.9774C77.8859 24.0207 78.1201 24.0423 78.3598 24.0423Z" fill="white"/>
</g>
<defs>
<clipPath id="clip0_1_36000">
<rect width="101" height="27.7982" fill="white" transform="translate(0 0.101074)"/>
</clipPath>
</defs>
</svg>
