<svg width="167" height="48" viewBox="0 0 167 48" fill="none" xmlns="http://www.w3.org/2000/svg">
<g clip-path="url(#clip0_1_36063)">
<path d="M166.162 22.5343V18.5148H161.171V12.2662L161.003 12.3176L156.314 13.7524L156.222 13.7804V18.5154H148.822V15.8775C148.822 14.6489 149.097 13.709 149.638 13.0824C150.175 12.463 150.944 12.1482 151.925 12.1482C152.63 12.1482 153.359 12.3142 154.094 12.6416L154.278 12.7239V8.49089L154.191 8.45889C153.506 8.21262 152.574 8.08862 151.419 8.08862C149.963 8.08862 148.64 8.40547 147.487 9.03344C146.332 9.66199 145.424 10.56 144.788 11.7011C144.154 12.841 143.833 14.1578 143.833 15.6149V18.5145H140.357V22.5343H143.833V39.4679H148.822V22.5343H156.222V33.2953C156.222 37.7274 158.312 39.9734 162.435 39.9734C163.113 39.9734 163.826 39.8939 164.554 39.7385C165.295 39.5788 165.8 39.4194 166.097 39.2491L166.163 39.2102V35.1533L165.959 35.2875C165.689 35.4681 165.351 35.6155 164.956 35.7252C164.559 35.8367 164.227 35.8929 163.97 35.8929C163.005 35.8929 162.29 35.6327 161.847 35.119C161.398 34.6007 161.171 33.6945 161.171 32.4268V22.5343H166.162ZM129.214 35.8938C127.403 35.8938 125.975 35.2933 124.969 34.1104C123.957 32.9216 123.444 31.2266 123.444 29.0729C123.444 26.8513 123.957 25.1122 124.969 23.9023C125.977 22.7006 127.391 22.0904 129.174 22.0904C130.904 22.0904 132.281 22.6732 133.267 23.8229C134.259 24.9788 134.762 26.7039 134.762 28.9518C134.762 31.2271 134.289 32.9748 133.356 34.1442C132.429 35.3041 131.036 35.8938 129.214 35.8938ZM129.436 18.0099C125.981 18.0099 123.237 19.0225 121.28 21.0193C119.325 23.0163 118.333 25.7796 118.333 29.2338C118.333 32.5145 119.301 35.1535 121.21 37.0758C123.119 38.9988 125.717 39.9731 128.931 39.9731C132.28 39.9731 134.97 38.9465 136.925 36.922C138.881 34.8998 139.872 32.1622 139.872 28.7892C139.872 25.4571 138.942 22.7986 137.108 20.889C135.272 18.9785 132.691 18.0099 129.436 18.0099ZM110.289 18.0099C107.938 18.0099 105.994 18.6113 104.509 19.7964C103.015 20.989 102.257 22.5529 102.257 24.4451C102.257 25.4288 102.42 26.3028 102.742 27.0439C103.066 27.7873 103.567 28.4421 104.233 28.9915C104.894 29.5363 105.914 30.1075 107.266 30.6883C108.403 31.1557 109.25 31.5511 109.789 31.8631C110.315 32.1688 110.688 32.4757 110.899 32.7751C111.104 33.0676 111.208 33.4685 111.208 33.9627C111.208 35.3704 110.154 36.0555 107.985 36.0555C107.18 36.0555 106.262 35.8875 105.257 35.5561C104.259 35.2299 103.317 34.7522 102.464 34.1399L102.256 33.9913V38.7951L102.332 38.8305C103.038 39.1562 103.929 39.4311 104.978 39.6474C106.025 39.8639 106.976 39.9739 107.803 39.9739C110.353 39.9739 112.407 39.37 113.905 38.1774C115.413 36.9769 116.178 35.3761 116.178 33.4185C116.178 32.006 115.766 30.7949 114.955 29.818C114.15 28.8489 112.752 27.9595 110.802 27.1733C109.249 26.5499 108.254 26.0322 107.843 25.6348C107.447 25.2511 107.246 24.7083 107.246 24.0208C107.246 23.4114 107.494 22.9235 108.004 22.5281C108.517 22.1309 109.231 21.9286 110.127 21.9286C110.958 21.9286 111.809 22.0601 112.655 22.3172C113.5 22.5746 114.242 22.9195 114.862 23.3412L115.066 23.4803V18.9233L114.988 18.8899C114.416 18.6445 113.662 18.4348 112.746 18.2645C111.834 18.0954 111.008 18.0099 110.289 18.0099ZM89.2493 35.8938C87.4389 35.8938 86.0104 35.2933 85.0044 34.1104C83.9919 32.9216 83.4799 31.2271 83.4799 29.0729C83.4799 26.8513 83.9925 25.1122 85.0056 23.9023C86.0115 22.7006 87.4254 22.0904 89.2093 22.0904C90.9387 22.0904 92.316 22.6732 93.3028 23.8229C94.2945 24.9788 94.7973 26.7039 94.7973 28.9518C94.7973 31.2271 94.3239 32.9748 93.3911 34.1442C92.4643 35.3041 91.0718 35.8938 89.2493 35.8938ZM89.4719 18.0099C86.0158 18.0099 83.2714 19.0225 81.3158 21.0193C79.3604 23.0163 78.3682 25.7796 78.3682 29.2338C78.3682 32.5159 79.3367 35.1535 81.2458 37.0758C83.1545 38.9988 85.7524 39.9731 88.9665 39.9731C92.3152 39.9731 95.0053 38.9465 96.9612 36.922C98.9165 34.8998 99.9076 32.1622 99.9076 28.7892C99.9076 25.4571 98.9777 22.7986 97.1429 20.889C95.307 18.9785 92.726 18.0099 89.4719 18.0099ZM70.7943 22.1435V18.5151H65.8657V39.4679H70.7943V28.7495C70.7943 26.927 71.2074 25.4296 72.0228 24.2988C72.8279 23.1815 73.9007 22.6152 75.2106 22.6152C75.6546 22.6152 76.1529 22.6883 76.6926 22.8332C77.2268 22.9772 77.6137 23.1332 77.8419 23.298L78.0491 23.448V18.4791L77.9691 18.4448C77.5102 18.2496 76.8608 18.1514 76.0392 18.1514C74.8007 18.1514 73.6921 18.5494 72.7428 19.3327C71.9094 20.0216 71.3071 20.9658 70.8466 22.1435H70.7943ZM57.039 18.0099C54.778 18.0099 52.7609 18.4948 51.0456 19.4507C49.3265 20.4087 47.9972 21.7764 47.0927 23.5157C46.1921 25.2505 45.7347 27.2773 45.7347 29.5375C45.7347 31.5171 46.1781 33.3339 47.0544 34.935C47.9309 36.5389 49.1717 37.7937 50.7425 38.664C52.311 39.5331 54.1237 39.9736 56.1308 39.9736C58.4732 39.9736 60.4731 39.5054 62.0765 38.582L62.141 38.5448V34.0293L61.9339 34.1807C61.1962 34.7155 60.3837 35.1385 59.5226 35.4361C58.6515 35.7401 57.8573 35.8938 57.161 35.8938C55.2271 35.8938 53.6743 35.2887 52.5475 34.0956C51.4182 32.9011 50.8453 31.2234 50.8453 29.1126C50.8453 26.9884 51.4427 25.2679 52.6195 23.9986C53.7929 22.7326 55.3482 22.0904 57.2424 22.0904C58.8623 22.0904 60.4408 22.6389 61.9345 23.7223L62.141 23.8726V19.1145L62.0745 19.0768C61.5125 18.7622 60.7457 18.5025 59.7943 18.3054C58.8466 18.1088 57.9198 18.0099 57.039 18.0099ZM42.3403 18.5151H37.4115V39.4679H42.3403V18.5151ZM39.9262 9.58885C39.1151 9.58885 38.4077 9.86512 37.8263 10.4122C37.2426 10.9611 36.9466 11.6522 36.9466 12.4676C36.9466 13.2701 37.2392 13.9484 37.8171 14.4827C38.3917 15.0152 39.1014 15.2852 39.9265 15.2852C40.7516 15.2852 41.4638 15.0152 42.0452 14.4835C42.63 13.9484 42.9269 13.2704 42.9269 12.4676C42.9269 11.6805 42.638 10.9968 42.0692 10.4345C41.5007 9.87341 40.7796 9.58885 39.9262 9.58885ZM27.6288 16.9691V39.4679H32.6588V10.2303H25.6972L16.8482 31.9471L8.26096 10.2303H1.01562V39.4679H5.74281V16.9668H5.90509L14.9732 39.4679H18.5401L27.4665 16.9688H27.6288V16.9691Z" fill="white"/>
</g>
<defs>
<clipPath id="clip0_1_36063">
<rect width="165.42" height="48" fill="white" transform="translate(0.742188)"/>
</clipPath>
</defs>
</svg>
