<svg width="184" height="40" viewBox="0 0 184 40" fill="none" xmlns="http://www.w3.org/2000/svg">
<path fill-rule="evenodd" clip-rule="evenodd" d="M180.798 16.7743C180.46 16.7746 180.124 16.7081 179.811 16.5785C179.498 16.4488 179.214 16.2587 178.975 16.0189C178.735 15.7792 178.546 15.4945 178.417 15.1813C178.288 14.8681 178.222 14.5325 178.223 14.1938C178.223 13.5093 178.495 12.853 178.979 12.369C179.463 11.8851 180.119 11.6132 180.804 11.6132C181.488 11.6132 182.144 11.8851 182.628 12.369C183.112 12.853 183.384 13.5093 183.384 14.1938C183.384 14.5331 183.317 14.8691 183.187 15.1825C183.057 15.4959 182.867 15.7806 182.626 16.0203C182.386 16.26 182.101 16.45 181.788 16.5794C181.474 16.7087 181.138 16.775 180.798 16.7743ZM180.798 12.0829C179.642 12.0829 178.712 13.0209 178.712 14.1938C178.712 15.3679 179.642 16.3046 180.798 16.3046C181.947 16.3046 182.895 15.3666 182.895 14.1938C182.895 13.0196 181.945 12.0829 180.798 12.0829ZM180.414 14.6066V15.6672H179.802V12.7203H180.969C181.542 12.7203 182.022 13.0209 182.022 13.6493C182.031 13.8321 181.98 14.013 181.879 14.1652C181.777 14.3174 181.629 14.4328 181.456 14.4944L182.068 15.6672H181.401L180.864 14.6066H180.414ZM181.401 13.6686C181.401 13.377 181.156 13.3022 180.921 13.3022H180.414V14.0338H180.93C181.156 14.0338 181.401 13.9409 181.401 13.6686ZM76.523 30.9673L67.6974 17.7291V30.9673H63.775V11.7719H68.3103L76.6456 24.2992V11.7719H80.568V30.9673H76.523ZM82.9047 24.4463C82.9047 20.5484 86.1162 17.582 90.0877 17.582C94.0347 17.582 97.1972 20.4748 97.1972 24.3727C97.1972 28.3197 93.9856 31.2615 90.0387 31.2615C86.0672 31.2615 82.9047 28.3932 82.9047 24.4463ZM86.8272 24.3972C86.8272 26.383 88.2736 27.7558 90.0632 27.7558C91.8528 27.7558 93.2747 26.383 93.2747 24.3972C93.2747 22.436 91.8283 21.0632 90.0387 21.0632C88.2491 21.0632 86.8272 22.436 86.8272 24.3972ZM106.574 17.8762V21.627C106.059 21.529 105.519 21.529 105.348 21.529C103.509 21.529 102.234 22.8038 102.234 25.2308V30.9673H98.4836V17.8762H102.112V19.7884H102.161C102.872 18.293 104.196 17.7291 105.544 17.7291C105.838 17.7291 106.304 17.8027 106.574 17.8762ZM117.62 30.9673V29.3003H117.571C116.345 31.0899 114.384 31.2125 113.501 31.2125C109.701 31.2125 107.274 27.9274 107.274 24.3972C107.274 21.0877 109.799 17.631 113.55 17.631C114.31 17.631 116.124 17.7781 117.473 19.3716H117.522V11.0119H121.322V30.9673H117.62ZM117.62 24.3972C117.62 22.436 116.173 21.0877 114.384 21.0877C112.594 21.0877 111.148 22.436 111.148 24.3972C111.148 26.383 112.594 27.7558 114.384 27.7558C116.173 27.7558 117.62 26.383 117.62 24.3972ZM129.449 30.9673L122.511 11.7719H126.801L131.778 26.3585L136.779 11.7719H140.996L134.033 30.9673H129.449ZM156.625 17.9252C156.625 22.1664 153.634 24.2011 149.614 24.2011H146.598V30.9673H142.627V11.7719H149.761C153.61 11.7719 156.625 13.8557 156.625 17.9252ZM152.629 18.0233C152.629 16.1601 151.06 15.5227 149.417 15.5227H146.598V20.4993H149.442C151.011 20.4993 152.629 19.8129 152.629 18.0233ZM171.372 30.9673L162.546 17.7291V30.9673H158.624V11.7719H163.159L171.494 24.2992V11.7719H175.417V30.9673H171.372ZM4.95104 39.9992C1.8311 35.6981 0.155159 30.5185 0.164098 25.205C0.164098 11.2842 11.4257 0.000732422 25.3168 0.000732422C39.2093 0.000732422 50.4696 11.2842 50.4696 25.205C50.4787 30.5185 48.8028 35.6982 45.6827 39.9992L33.6017 20.3419L32.4353 22.316L33.6185 27.8049L25.3168 13.5731L20.1815 22.2606L21.3776 27.8049L17.0255 20.3522L4.95104 39.9992Z" fill="white"/>
</svg>
