<svg width="115" height="48" viewBox="0 0 115 48" fill="none" xmlns="http://www.w3.org/2000/svg">
<g clip-path="url(#clip0_1_36068)">
<mask id="mask0_1_36068" style="mask-type:luminance" maskUnits="userSpaceOnUse" x="0" y="8" width="115" height="33">
<path d="M0.382812 8.00122H114.774V40.0275H0.382812V8.00122Z" fill="white"/>
</mask>
<g mask="url(#mask0_1_36068)">
<path d="M17.4423 18.2743C17.4423 15.5993 16.1144 14.1947 12.9322 14.1947H8.86215V22.3988H12.9274C16.116 22.3988 17.4423 21.0389 17.4423 18.2743ZM26.3264 18.3639C26.3264 21.6533 24.6833 23.9347 21.6003 25.6962L28.4062 39.2951H18.8774L13.4378 28.0192H8.86215V39.2919H0.382812V8.5791H14.2585C22.5667 8.5791 26.3264 12.5724 26.3264 18.3639ZM89.4046 8.65062L86.0929 15.1445H96.9208V39.3586H105.451V15.1445H114.774V8.65062H89.4046ZM81.9764 8.61702H86.616L68.3615 23.5742V18.3699L81.9764 8.61702Z" fill="white"/>
<path d="M81.9259 8.61694H86.7735L79.7341 22.3327L72.0547 25.8156L81.9259 8.61694Z" fill="white"/>
<path d="M72.0413 25.8156L79.7207 22.3327L88.0881 39.2673H78.5192L72.0413 25.8156ZM68.5186 8.64111H60.0312V39.3059H68.5186V8.64111Z" fill="white"/>
<path fill-rule="evenodd" clip-rule="evenodd" d="M42.9505 8.00122C38.5733 8.00122 35.0375 9.44111 32.3913 12.3017C29.7452 15.1623 28.4141 19.0132 28.4141 23.9696V24.0576C28.4141 29.0172 29.7399 32.922 32.3913 35.7718C35.0455 38.6228 38.5781 40.0275 42.9505 40.0275C47.323 40.0275 50.8603 38.6228 53.4681 35.7718C56.1196 32.9197 57.4454 29.0151 57.4454 24.0576V23.9696C57.4454 19.01 56.1191 15.1559 53.4681 12.3017C50.8603 9.44911 47.3262 8.00122 42.9505 8.00122ZM42.9089 14.2407C41.1235 14.2407 39.6804 15.1447 38.5989 16.9285C37.5173 18.7124 36.975 21.1218 36.975 24.2207V24.2751C36.975 27.3757 37.5162 29.8166 38.5989 31.5978C39.682 33.38 41.1235 34.2568 42.9089 34.2568C44.6944 34.2568 46.1375 33.38 47.2014 31.5978C48.2653 29.8155 48.8253 27.3741 48.8253 24.2751V24.2207C48.8253 21.1218 48.2845 18.7124 47.2014 16.9285C46.1183 15.1447 44.7024 14.2471 42.9089 14.2471V14.2407Z" fill="white"/>
</g>
</g>
<defs>
<clipPath id="clip0_1_36068">
<rect width="114.391" height="48" fill="white" transform="translate(0.382812)"/>
</clipPath>
</defs>
</svg>
