<svg width="141" height="104" viewBox="0 0 141 104" fill="none" xmlns="http://www.w3.org/2000/svg">
<g clip-path="url(#clip0_1_36576)">
<g opacity="0.2">
<path opacity="0.5" d="M112.511 27.5371H9.87081C7.84305 27.5371 6.19922 29.1809 6.19922 31.2087V94.7022C6.19922 96.73 7.84305 98.3738 9.87081 98.3738H112.511C114.538 98.3738 116.182 96.73 116.182 94.7022V31.2087C116.182 29.1809 114.538 27.5371 112.511 27.5371Z" fill="white"/>
<path opacity="0.5" d="M116.182 31.9433C116.182 33.971 114.538 35.6149 112.511 35.6149H9.8708C7.84304 35.6149 6.19921 33.971 6.19922 31.9433V31.2086C6.19922 29.1808 7.84304 27.537 9.87081 27.537H112.511C114.538 27.537 116.182 29.1808 116.182 31.2086V31.9433Z" fill="white"/>
</g>
<g opacity="0.4">
<path opacity="0.5" d="M124.444 16.082H21.8044C19.7766 16.082 18.1328 17.7259 18.1328 19.7536V83.2471C18.1328 85.2749 19.7766 86.9187 21.8044 86.9187H124.444C126.472 86.9187 128.116 85.2749 128.116 83.2471V19.7536C128.116 17.7259 126.472 16.082 124.444 16.082Z" fill="white"/>
<path opacity="0.5" d="M130.87 16.8165C130.87 18.8443 129.226 20.4881 127.198 20.4881H24.5583C22.5305 20.4881 20.8867 18.8442 20.8867 16.8165V16.0818C20.8867 14.054 22.5305 12.4102 24.5583 12.4102H127.198C129.226 12.4102 130.87 14.054 130.87 16.0818V16.8165Z" fill="white"/>
</g>
<g opacity="0.5">
<path d="M140.199 9L30.1992 8.99999V3.67159C30.1992 1.64383 31.843 -1.77273e-07 33.8708 0L136.527 8.97454e-06C138.555 9.15182e-06 140.199 1.64384 140.199 3.6716V9Z" fill="white"/>
<path opacity="0.5" d="M136.511 0H33.8708C31.843 0 30.1992 1.64383 30.1992 3.67159V67.1651C30.1992 69.1929 31.843 70.8367 33.8708 70.8367H136.511C138.538 70.8367 140.182 69.1929 140.182 67.1651V3.67159C140.182 1.64383 138.538 0 136.511 0Z" fill="white"/>
</g>
<path opacity="0.4" d="M37.1992 7C38.3038 7 39.1992 6.10457 39.1992 5C39.1992 3.89543 38.3038 3 37.1992 3C36.0946 3 35.1992 3.89543 35.1992 5C35.1992 6.10457 36.0946 7 37.1992 7Z" fill="white"/>
<path opacity="0.4" d="M43.1992 7C44.3038 7 45.1992 6.10457 45.1992 5C45.1992 3.89543 44.3038 3 43.1992 3C42.0946 3 41.1992 3.89543 41.1992 5C41.1992 6.10457 42.0946 7 43.1992 7Z" fill="white"/>
<path opacity="0.4" d="M49.1992 7C50.3038 7 51.1992 6.10457 51.1992 5C51.1992 3.89543 50.3038 3 49.1992 3C48.0946 3 47.1992 3.89543 47.1992 5C47.1992 6.10457 48.0946 7 49.1992 7Z" fill="white"/>
</g>
<defs>
<clipPath id="clip0_1_36576">
<rect width="140" height="104" fill="white" transform="translate(0.199219)"/>
</clipPath>
</defs>
</svg>
